<svg width="114" height="40" viewBox="0 0 114 40" fill="none" xmlns="http://www.w3.org/2000/svg">
<rect x="0.537109" y="1.36237" width="112" height="38" rx="3.5" fill="url(#paint0_linear_2067_391)"/>
<rect x="0.537109" y="1.36237" width="112" height="38" rx="3.5" stroke="black" style="mix-blend-mode:overlay"/>
<path d="M38.6884 17.2715C38.6213 16.7047 38.3491 16.2647 37.8718 15.9515C37.3945 15.6383 36.8091 15.4817 36.1156 15.4817C35.6085 15.4817 35.1648 15.5637 34.7844 15.7278C34.4078 15.8918 34.1133 16.1174 33.9007 16.4045C33.6919 16.6916 33.5875 17.0179 33.5875 17.3833C33.5875 17.6891 33.6602 17.9519 33.8057 18.1719C33.9548 18.3882 34.145 18.569 34.3762 18.7145C34.6073 18.8562 34.8497 18.9736 35.1032 19.0668C35.3568 19.1563 35.5898 19.229 35.8024 19.285L36.9657 19.5982C37.264 19.6765 37.5959 19.7846 37.9613 19.9226C38.3304 20.0605 38.6828 20.2488 39.0184 20.4875C39.3577 20.7224 39.6373 21.0244 39.8573 21.3935C40.0773 21.7627 40.1873 22.2157 40.1873 22.7526C40.1873 23.3716 40.0251 23.9309 39.7007 24.4305C39.3801 24.9302 38.9102 25.3273 38.2913 25.6219C37.676 25.9164 36.9284 26.0637 36.0485 26.0637C35.2282 26.0637 34.5178 25.9313 33.9175 25.6666C33.3209 25.4019 32.8511 25.0327 32.5081 24.5592C32.1688 24.0856 31.9767 23.5357 31.932 22.9092H33.3638C33.4011 23.3418 33.5465 23.6997 33.8001 23.9831C34.0574 24.2628 34.3817 24.4716 34.7733 24.6095C35.1685 24.7438 35.5936 24.8109 36.0485 24.8109C36.5779 24.8109 37.0534 24.7251 37.4747 24.5536C37.896 24.3783 38.2298 24.136 38.4759 23.8265C38.7219 23.5133 38.845 23.1479 38.845 22.7303C38.845 22.3499 38.7387 22.0405 38.5262 21.8018C38.3137 21.5632 38.034 21.3693 37.6872 21.2201C37.3405 21.071 36.9657 20.9405 36.563 20.8286L35.1536 20.4259C34.2587 20.1687 33.5502 19.8014 33.0282 19.3241C32.5062 18.8468 32.2452 18.2223 32.2452 17.4504C32.2452 16.8091 32.4186 16.2498 32.7654 15.7725C33.1159 15.2915 33.5857 14.9187 34.1748 14.6539C34.7677 14.3854 35.4295 14.2512 36.1603 14.2512C36.8986 14.2512 37.5549 14.3836 38.1291 14.6483C38.7033 14.9093 39.1582 15.2673 39.4938 15.7222C39.8331 16.1771 40.0121 16.6935 40.0307 17.2715H38.6884ZM42.2889 25.8624V17.2715H43.6089V25.8624H42.2889ZM42.9601 15.8396C42.7028 15.8396 42.4809 15.752 42.2945 15.5768C42.1118 15.4015 42.0204 15.1908 42.0204 14.9448C42.0204 14.6987 42.1118 14.488 42.2945 14.3127C42.4809 14.1375 42.7028 14.0499 42.9601 14.0499C43.2174 14.0499 43.4373 14.1375 43.6201 14.3127C43.8065 14.488 43.8997 14.6987 43.8997 14.9448C43.8997 15.1908 43.8065 15.4015 43.6201 15.5768C43.4373 15.752 43.2174 15.8396 42.9601 15.8396ZM49.4941 29.2629C48.8565 29.2629 48.3084 29.1809 47.8498 29.0168C47.3912 28.8565 47.009 28.644 46.7032 28.3792C46.4012 28.1182 46.1607 27.8386 45.9817 27.5403L47.0332 26.802C47.1525 26.9586 47.3035 27.1376 47.4862 27.3389C47.6689 27.544 47.9188 27.7211 48.2357 27.8703C48.5564 28.0231 48.9759 28.0996 49.4941 28.0996C50.1877 28.0996 50.76 27.9318 51.2112 27.5962C51.6624 27.2606 51.888 26.7349 51.888 26.019V24.2739H51.7761C51.6792 24.4305 51.5412 24.6244 51.3622 24.8556C51.187 25.0831 50.9334 25.2863 50.6016 25.4653C50.2734 25.6405 49.8297 25.7281 49.2704 25.7281C48.5769 25.7281 47.9542 25.5641 47.4023 25.2359C46.8542 24.9078 46.4198 24.4305 46.0992 23.8041C45.7822 23.1777 45.6238 22.4171 45.6238 21.5222C45.6238 20.6422 45.7785 19.8759 46.088 19.2234C46.3975 18.5672 46.8281 18.0601 47.38 17.7021C47.9318 17.3404 48.5694 17.1596 49.2928 17.1596C49.8521 17.1596 50.2958 17.2528 50.6239 17.4392C50.9558 17.622 51.2093 17.8308 51.3846 18.0657C51.5636 18.2968 51.7015 18.487 51.7985 18.6362H51.9327V17.2715H53.2079V26.1085C53.2079 26.8467 53.0401 27.4471 52.7045 27.9094C52.3727 28.3755 51.9252 28.7167 51.3622 28.9329C50.8029 29.1529 50.1802 29.2629 49.4941 29.2629ZM49.4494 24.5424C49.9789 24.5424 50.4263 24.4212 50.7917 24.1789C51.1571 23.9365 51.4349 23.5879 51.6251 23.133C51.8153 22.6781 51.9103 22.1337 51.9103 21.4998C51.9103 20.8808 51.8171 20.3346 51.6307 19.861C51.4442 19.3875 51.1683 19.0165 50.8029 18.748C50.4375 18.4796 49.9863 18.3453 49.4494 18.3453C48.8901 18.3453 48.424 18.487 48.0511 18.7704C47.682 19.0538 47.4042 19.4341 47.2178 19.9114C47.0351 20.3886 46.9437 20.9181 46.9437 21.4998C46.9437 22.0964 47.0369 22.624 47.2234 23.0826C47.4135 23.5375 47.6932 23.8955 48.0623 24.1565C48.4352 24.4138 48.8975 24.5424 49.4494 24.5424ZM56.9441 20.6944V25.8624H55.6241V17.2715H56.8993V18.6138H57.0112C57.2125 18.1775 57.5183 17.827 57.9284 17.5623C58.3386 17.2938 58.8681 17.1596 59.5169 17.1596C60.0985 17.1596 60.6075 17.2789 61.0438 17.5176C61.48 17.7525 61.8193 18.1104 62.0617 18.5914C62.3041 19.0687 62.4252 19.6727 62.4252 20.4036V25.8624H61.1053V20.493C61.1053 19.8182 60.93 19.2924 60.5795 18.9158C60.229 18.5355 59.748 18.3453 59.1365 18.3453C58.7152 18.3453 58.3386 18.4367 58.0067 18.6194C57.6786 18.8021 57.4195 19.0687 57.2293 19.4192C57.0392 19.7697 56.9441 20.1948 56.9441 20.6944ZM70.833 14.4078V25.8624H69.4459V14.4078H70.833ZM74.7551 20.6944V25.8624H73.4351V17.2715H74.7104V18.6138H74.8222C75.0236 18.1775 75.3293 17.827 75.7395 17.5623C76.1496 17.2938 76.6791 17.1596 77.3279 17.1596C77.9096 17.1596 78.4185 17.2789 78.8548 17.5176C79.2911 17.7525 79.6304 18.1104 79.8727 18.5914C80.1151 19.0687 80.2363 19.6727 80.2363 20.4036V25.8624H78.9163V20.493C78.9163 19.8182 78.7411 19.2924 78.3906 18.9158C78.0401 18.5355 77.5591 18.3453 76.9476 18.3453C76.5262 18.3453 76.1496 18.4367 75.8178 18.6194C75.4897 18.8021 75.2305 19.0687 75.0403 19.4192C74.8502 19.7697 74.7551 20.1948 74.7551 20.6944Z" fill="black"/>
<defs>
<linearGradient id="paint0_linear_2067_391" x1="0.0371102" y1="20.3624" x2="99.2543" y2="20.3624" gradientUnits="userSpaceOnUse">
<stop stop-color="#DDD3EF" stop-opacity="0.55"/>
<stop offset="0.416667" stop-color="#FDD9FF"/>
<stop offset="1" stop-color="#B2E0FE"/>
</linearGradient>
</defs>
</svg>
